<svg width="72" height="28" viewBox="0 0 72 28" fill="none" xmlns="http://www.w3.org/2000/svg">
<path d="M1 14.7106V13.3351C1 13.0911 1.19778 12.8933 1.44176 12.8933H1.49212C1.57052 12.8933 1.64606 12.9228 1.70377 12.9758L1.93918 13.1924C2.04961 13.2939 2.22807 13.2156 2.22807 13.0656C2.22807 12.9704 2.3052 12.8933 2.40034 12.8933L5.70261 12.8933H9.6564H10.3453H12.0526L13.8947 12.8945C13.8711 13.189 14.9075 13.4284 15.0283 12.7271C15.149 12.0258 15.1228 11.765 15.1228 11.765C14.8979 11.4137 14.9527 11.3417 15.7368 11.7637L16.3509 12.974C39.0702 12.8933 41.1818 12.5581 71 10.7148C68.9266 11.8075 67.6541 12.3397 64.8596 12.9746C46.4386 14.5889 43.9825 15.1537 16.3509 15.1524L15.7368 16.282C15.1228 16.848 14.9399 16.8701 15.1228 16.282V15.5171C15.2218 14.5983 14.0717 14.9249 13.8947 15.1537H12.0526L10.3453 15.1524H9.6564H5.70261H2.40034C2.3052 15.1524 2.22807 15.0753 2.22807 14.9801C2.22807 14.8301 2.04961 14.7518 1.93918 14.8534L1.70377 15.0699C1.64606 15.123 1.57052 15.1524 1.49212 15.1524H1.44176C1.19778 15.1524 1 14.9546 1 14.7106Z" fill="#3D3D3D"/>
</svg>
