<svg width="72" height="28" viewBox="0 0 72 28" fill="none" xmlns="http://www.w3.org/2000/svg">
<path d="M26.5145 7.71484H28.2252L28.9212 8.06583H29.6173H30.3134L31.0095 7.71484H32.7497H33.7939L34.4899 8.06583H40.0587H36.9263H37.9704L39.3626 8.76779H44.9313H45.6274H46.3235L47.0196 8.41681H48.7598L49.1078 8.76779H49.8039L50.5 8.41681V10.5227L49.8039 10.1717H49.1078L48.7598 10.5227H47.0196L46.3235 10.1717H45.6274H44.5832H40.4067L39.0145 11.2247L38.6665 12.9796V13.6816L38.3185 14.3835H35.5341H35.1861H34.838C34.838 14.3835 35.1861 15.7875 33.4458 15.7875C31.7056 15.7875 31.0095 13.6816 31.0095 13.6816H30.3134L29.9654 14.7345C29.6482 15.1088 29.6052 15.3248 29.6173 15.7875C29.7784 17.4396 29.8251 17.8467 29.2693 18.5953C28.2548 19.7099 25.7283 20.424 25.5 18.5953C25.5234 16.3684 25.5 16.8404 25.8184 16.1385C26.1369 15.4365 26.4686 13.9969 26.485 13.3306L25.8184 12.9796V10.8737L26.5145 9.46976V7.71484Z" fill="#3D3D3D"/>
<path d="M34.3901 14.4545C34.3901 15.001 34.1044 15.5827 33.4378 15.4441C33.017 15.4441 32.3901 15.001 32.3901 14.4545C32.3901 13.9079 32.636 13.4648 33.0568 13.4648C33.4776 13.4648 34.3901 13.9079 34.3901 14.4545Z" fill="white"/>
</svg>
