<svg width="44" height="5" viewBox="0 0 44 5" fill="none" xmlns="http://www.w3.org/2000/svg">
<path d="M1.35227 1.27789C1.35227 0.827474 -3.33346e-05 -0.41069 0 1.90493C-3.3334e-05 4.22056 1.35233 3.40239 1.35227 2.65366C1.35222 1.90493 8.69857 2.65366 14.4533 2.65366C20.2081 2.65366 21.4142 4.0048 25.5403 4.0048C31.8294 4.00249 42.0443 4.27339 42.8742 4.0048C43.7041 3.73621 43.7927 0.437308 42.8742 0.14107C41.9557 -0.155169 31.8295 0.107516 25.5403 0.10521C21.4142 0.10521 20.1995 1.41422 14.4533 1.41422C8.70714 1.41422 1.35227 1.7283 1.35227 1.27789Z" fill="#3D3D3D"/>
</svg>
