<svg width="72" height="27" viewBox="0 0 72 27" fill="none" xmlns="http://www.w3.org/2000/svg">
<path d="M30.3437 16.9572C30.4695 18.8369 30.2981 18.96 30.3754 20.1147C35.2505 21.7693 35.8943 21.9529 36.5081 19.7711L34.7021 11.2742C34.323 9.05997 34.2298 7.83631 34.648 5.90173L31.5968 6.28909L30.2498 7.63208C30.6704 9.58557 30.6643 10.7112 30.0554 12.6524L30.3437 16.9572Z" fill="#3D3D3D"/>
<path d="M41.3749 17.3041C41.2684 19.1838 41.4404 19.309 41.3749 20.4638C36.535 22.0619 35.8954 22.238 35.2621 20.0473L36.9761 11.565L36.9761 6.61269L40.0196 6.61269L41.375 7.9727C40.9756 9.92276 40.9929 11.0494 41.6189 12.9993L41.3749 17.3041Z" fill="white"/>
<path d="M41.6235 17.031C41.517 18.9107 41.689 19.0359 41.6235 20.1907C36.7835 21.7888 36.144 21.9649 35.5106 19.7742L37.2246 11.2919C37.564 8.48478 37.6087 7.20827 37.2247 5.87877L40.2682 6.33958L41.6235 7.69958C41.2241 9.64964 41.2415 10.7763 41.8675 12.7262L41.6235 17.031Z" fill="#3D3D3D"/>
</svg>
