<svg width="72" height="28" viewBox="0 0 72 28" fill="none" xmlns="http://www.w3.org/2000/svg">
<path d="M36.082 9.06856L36.1001 9.07559L36.1181 9.06862L41.0698 7.15938C42.8495 7.16081 44.1623 7.41068 45.1907 7.99958C46.2141 8.58565 46.9619 9.51108 47.6064 10.8775L45.7021 14.347L44.3541 13.9747L44.3079 13.962L44.2932 14.0076L42.8437 18.502C42.3297 19.4193 42.1439 20.4146 42.3031 24.5128H29.2126C29.2462 23.8588 29.2915 23.2543 29.3332 22.6988C29.3872 21.9798 29.435 21.3427 29.4432 20.7863C29.4579 19.7917 29.3476 19.0321 28.909 18.4969L27.2808 14.0059L27.2648 13.962L27.22 13.9749L25.9198 14.3474L23.7052 10.8808C24.749 9.26555 25.5471 8.34035 26.6122 7.81526C27.683 7.28732 29.0304 7.16031 31.1853 7.16051L36.082 9.06856Z" fill="#9D9D9D" stroke="black" stroke-width="0.1"/>
<path d="M43.2422 9.75579L39.3332 8.92188L36.5818 9.44305V10.5788L37.0873 11.7242V13.606L36.5818 14.3067V16.025L40.3179 17.4585L41.9842 16.092L42.6782 13.606L44.1807 11.7242L43.2422 9.75579Z" fill="#4E4E4E"/>
<path d="M28.4127 9.64648L32.5453 8.92188L35.4607 9.44305V10.5788L34.925 11.7242V13.606L35.4607 14.3067V16.025L31.502 17.4585L29.7364 16.092L28.8838 13.606L27.4091 11.7242L28.4127 9.64648Z" fill="#4E4E4E"/>
<path d="M32.2771 18.3838L35.4807 16.8125H36.5568L39.7527 18.3838L39.3595 20.4661H32.628L32.2771 18.3838Z" fill="#4E4E4E"/>
<path d="M29.7167 5.84426C27.9811 6.08383 27.0125 6.34467 25.3096 7.61132L24.4589 8.27022L22.9617 10.7251L22.9617 12.7832L24.2277 12.3921L27.5563 9.63161L30.5506 8.26885L31.178 7.29194L33.2142 8.26885L32.5986 4.36973L30.8371 4.37118L29.7167 5.84426Z" fill="#4E4E4E"/>
<path d="M42.2833 5.87551C44.0189 6.11508 44.9875 6.37592 46.6904 7.64257L47.5411 8.30147L49.0383 10.7564L49.0383 12.8144L47.7723 12.4234L44.4437 9.66286L41.4494 8.3001L40.822 7.32319L38.7858 8.3001L39.4014 4.40098L41.1629 4.40243L42.2833 5.87551Z" fill="#4E4E4E"/>
<path d="M33.3198 21.1416L35.6503 21.1406L36.9584 21.1416L38.6905 21.1406L38.3621 23.2229H33.6256L33.3198 21.1416Z" fill="#4E4E4E"/>
<path d="M29.3368 14.9735L32.1527 13.8047L35.4533 14.3174H36.6057L39.2056 13.8047L42.2533 15.0669L41.6145 17.4583H38.5423L36.5033 16.1391H35.064L32.945 17.4583H30.1781L29.3368 14.9735Z" fill="#4E4E4E"/>
</svg>
