<svg width="80" height="53" viewBox="0 0 80 53" fill="none" xmlns="http://www.w3.org/2000/svg">
<g clip-path="url(#clip0_996_164)">
<path d="M0 3C0 1.34315 1.34315 0 3 0H77C78.6569 0 80 1.34315 80 3V50C80 51.6569 78.6569 53 77 53H3C1.34315 53 0 51.6569 0 50V3Z" fill="white"/>
<path d="M37.5 8.49885L24 8.49878L21.8776 6.99815L12.6984 6.99815L-1.6881e-07 6.99815L-6.18018e-07 3.00166C-8.0425e-07 1.3448 1.34314 0.0016533 3 0.00165318L80 0.00164795L80 8.5L67.3043 8.49878L65.4075 6.99989L39.3498 7.00025L37.5 8.49885Z" fill="#B44242"/>
<path d="M39.3651 45L55.2381 45L65.3968 45L67.3016 46.5405L80 46.5405L80 50C80 51.6569 78.6568 53 77 53L-2.47837e-06 53L9.78303e-06 45L22.0475 45L24.127 46.5405L37.5 46.5405L39.3651 45Z" fill="#B44242"/>
</g>
<defs>
<clipPath id="clip0_996_164">
<rect width="80" height="53" fill="white"/>
</clipPath>
</defs>
</svg>
