<svg width="80" height="53" viewBox="0 0 80 53" fill="none" xmlns="http://www.w3.org/2000/svg">
<g clip-path="url(#clip0_755_194)">
<path d="M-0.0776672 5.43359C-0.0776672 3.77674 1.26548 2.43359 2.92233 2.43359H76.9223C78.5792 2.43359 79.9223 3.77674 79.9223 5.43359V35.4336C79.9223 37.0904 78.5792 38.4336 76.9223 38.4336H2.92233C1.26548 38.4336 -0.0776672 37.0904 -0.0776672 35.4336V5.43359Z" fill="white"/>
<path d="M40.5573 8.5L24.6842 8.5L14.5255 8.5L12.6207 7L-0.0776674 7L-0.0776679 3.00001C-0.077668 1.34315 1.26548 5.34831e-06 2.92233 5.23565e-06L79.9223 0L79.9223 7L57.0652 7L55.7954 5.49999L45.6366 5.49999L40.5573 8.5Z" fill="#567DAB"/>
<path d="M39.2874 32.5L55.1604 32.5L65.3192 32.5L67.2239 34L79.9223 34L79.9223 50C79.9223 51.6569 78.5792 53 76.9223 53L-0.077668 53L-0.0776674 34L22.7795 34L24.0493 35.5L34.208 35.5L39.2874 32.5Z" fill="#567DAB"/>
</g>
<defs>
<clipPath id="clip0_755_194">
<rect width="80" height="53" fill="white"/>
</clipPath>
</defs>
</svg>
