<svg width="80" height="53" viewBox="0 0 80 53" fill="none" xmlns="http://www.w3.org/2000/svg">
<g clip-path="url(#clip0_996_164)">
<path d="M37.5 8.49885L24 8.49878L21.8776 6.99815L12.6984 6.99815L-1.6881e-07 6.99815L-6.18018e-07 3.00166C-8.0425e-07 1.3448 1.34314 0.0016533 3 0.00165318L80 0.00164795L80 8.5L67.3043 8.49878L65.4075 6.99989L39.3498 7.00025L37.5 8.49885Z" fill="#B44242"/>
<path d="M39.3651 35.457L55.2381 35.457L65.3968 35.457L67.3016 36.9975L80 36.9975L79.9999 49.9987C79.9999 51.6555 78.6568 52.9987 76.9999 52.9987L-2.28813e-06 52.9987L9.78285e-06 35.457L22.0475 35.457L24.127 36.9975L37.5 36.9975L39.3651 35.457Z" fill="#B44242"/>
</g>
<defs>
</defs>
</svg>
