<svg width="81" height="54" viewBox="0 0 81 54" fill="none" xmlns="http://www.w3.org/2000/svg">
<g clip-path="url(#clip0_755_194)">
<path d="M0.172607 5.48828C0.172607 3.83142 1.51575 2.48828 3.17261 2.48828H77.1726C78.8295 2.48828 80.1726 3.83143 80.1726 5.48828V50.0547C80.1726 51.7115 78.8295 53.0547 77.1726 53.0547H3.17261C1.51576 53.0547 0.172607 51.7115 0.172607 50.0547V5.48828Z" fill="white"/>
<path d="M40.8076 8.55078L24.9346 8.55079L14.7758 8.55078L12.8711 7.05078L0.172668 7.05078L0.172668 3.05079C0.172668 1.39394 1.51581 0.0507866 3.17267 0.0507865L80.1727 0.0507812L80.1727 7.05078L57.3155 7.05078L56.0457 5.55077L45.887 5.55078L40.8076 8.55078Z" fill="#D76636"/>
<path d="M39.5377 45.168L55.4107 45.168L65.5694 45.168L67.4742 46.668L80.1726 46.668L80.1726 50.7203C80.1726 52.3772 78.8295 53.7203 77.1726 53.7203L0.172607 53.7203L0.172607 46.668L23.0298 46.668L24.2996 48.168L34.4583 48.168L39.5377 45.168Z" fill="#D76636"/>
</g>
<defs>
<clipPath id="clip0_755_194">
<rect width="80" height="53" fill="white" transform="translate(0.172607 0.0507812)"/>
</clipPath>
</defs>
</svg>
