<svg width="72" height="27" viewBox="0 0 72 27" fill="none" xmlns="http://www.w3.org/2000/svg">
<path d="M35.1354 7.88106L35.1534 7.88809L35.1715 7.88112L40.117 5.97428C41.509 6.33255 42.664 6.80768 43.6282 7.51736C44.5903 8.22547 45.365 9.16896 45.9952 10.4683L44.7526 13.1587L43.4074 12.7872L43.3612 12.7745L43.3465 12.8201L41.8971 17.3145C41.3831 18.2318 41.1973 19.2271 41.3565 23.3253H28.2659C28.2996 22.6713 28.3449 22.0668 28.3866 21.5113C28.4405 20.7923 28.4883 20.1552 28.4965 19.5988C28.5113 18.6042 28.401 17.8446 27.9624 17.3094L26.3341 12.8184L26.3182 12.7745L26.2733 12.7874L24.976 13.1591L23.5224 10.4634C24.4222 7.86889 26.8301 6.25684 30.2406 5.9738L35.1354 7.88106Z" fill="#9D9D9D" stroke="black" stroke-width="0.1"/>
<path d="M27.8399 16.7254L43.9207 8.49401L44.6559 10.0008L28.3321 17.7773L28.1875 17.4297L27.9883 17.1534L27.8399 16.7254Z" fill="#C4C4C4"/>
<path d="M41.4975 4.83822L44.9035 6.60394L45.7542 7.26283L47.2514 9.71776L45.7542 13.29L39.4024 8.88513L41.2231 6.60555L41.4975 4.83822Z" fill="#4E4E4E"/>
<path d="M36.4092 8.03602L38.9872 6.46284L40.9268 9.97776L42.8663 10.9147L42.2278 13.2311L42.4239 15.1856L40.9268 18.7578C39.1277 17.9736 38.741 17.8429 37.0967 16.5732C35.7823 15.1871 35.4814 14.236 35.3494 12.3052L36.753 10.5579L36.4092 8.03602Z" fill="#9D9D9D"/>
<path d="M35.7048 7.74062L38.6766 6.56385L40.6162 10.0788L42.5557 11.0157L41.9172 13.3321L42.4463 15.3794L42.3409 16.1174L41.9172 17.1893L41.638 17.8571L41.4271 18.5424L41.3217 19.2629C40.4121 17.8948 38.6055 16.9809 36.7278 15.9751C35.2749 14.3433 34.5373 13.6951 35.0388 12.4062L36.4424 10.6589L35.7048 7.74062Z" fill="#4E4E4E"/>
</svg>
