<svg width="72" height="27" viewBox="0 0 72 27" fill="none" xmlns="http://www.w3.org/2000/svg">
<path d="M36.3761 6.73262L36.3941 6.73965L36.4122 6.73268L41.3577 4.82585C42.7498 5.18412 43.9047 5.65925 44.869 6.36893C45.831 7.07703 46.6057 8.02053 47.2359 9.31988L45.9934 12.0103L44.6481 11.6388L44.602 11.6261L44.5872 11.6717L43.1378 16.166C42.6238 17.0834 42.438 18.0787 42.5972 22.1769H29.5067C29.5403 21.5229 29.5856 20.9184 29.6273 20.3629C29.6812 19.6438 29.729 19.0068 29.7373 18.4504C29.752 17.4558 29.6417 16.6962 29.2031 16.161L27.5748 11.67L27.5589 11.6261L27.5141 11.6389L26.2167 12.0107L24.7632 9.31496C25.6629 6.72046 28.0708 5.1084 31.4814 4.82536L36.3761 6.73262Z" fill="#9D9D9D" stroke="black" stroke-width="0.1"/>
<path d="M43.5363 7.42766L39.6273 6.59375L36.8759 7.11493V8.25068L37.3814 9.39603V11.2778L36.8759 11.9785V13.6969L40.6119 15.1304L42.2782 13.7639L42.9723 11.2778L44.4747 9.39603L43.5363 7.42766Z" fill="#4E4E4E"/>
<path d="M28.7067 7.31835L32.8393 6.59375L35.7547 7.11493V8.25068L35.219 9.39603V11.2778L35.7547 11.9785V13.6969L31.796 15.1304L30.0304 13.7639L29.1778 11.2778L27.7031 9.39603L28.7067 7.31835Z" fill="#4E4E4E"/>
<path d="M29.7512 12.9228L32.6039 11.6719L35.7375 11.901H36.9546L39.6569 11.6719L42.4596 12.9228L41.8542 15.3255H38.9936L36.9546 14.0063H35.5152L33.3963 15.3255H30.4851L29.7512 12.9228Z" fill="#4E4E4E"/>
<path d="M32.4894 16.4659L35.6931 14.8945H36.7691L39.9651 16.4659L39.5718 18.5481H32.8404L32.4894 16.4659Z" fill="#4E4E4E"/>
<path d="M33.5321 19.2237L35.8626 19.2227L37.1706 19.2237L38.9028 19.2227L38.5744 21.3049H33.8378L33.5321 19.2237Z" fill="#4E4E4E"/>
</svg>
