<svg width="48" height="23" viewBox="0 0 48 23" fill="none" xmlns="http://www.w3.org/2000/svg">
<path d="M1.94789 0H5.23229L6.56878 0.672719H7.90527H9.24176L10.5783 0H13.9195H15.9242L17.2607 0.672719H27.9527H21.9385H23.9432L26.6162 2.01816H37.3081H38.6446H39.9811L41.3176 1.34544H44.6588L45.327 2.01816H46.6635L48 1.34544V5.38175L46.6635 4.70903H45.327L44.6588 5.38175H41.3176L39.9811 4.70903H38.6446H36.6398H28.6209L25.9479 6.72719L25.2797 10.0908V11.4362L24.6114 12.7817H19.2655H18.5972H17.929C17.929 12.7817 18.5972 15.4725 15.256 15.4725C11.9147 15.4725 10.5783 11.4362 10.5783 11.4362H9.24176L8.57352 13.4544C7.96446 14.1718 7.88208 14.5857 7.90527 15.4725C8.21443 18.6392 8.30417 19.4194 7.23708 20.8543C5.28913 22.9906 0.438351 24.3592 0 20.8543C0.0448611 16.586 -6.65966e-05 17.4907 0.611387 16.1452C1.22284 14.7998 1.85962 12.0407 1.89112 10.7635L0.611404 10.0908V6.05447L1.94789 3.36359V0Z" fill="#3D3D3D"/>
<path d="M16 13.4845C16 14.3043 15.5714 15.1768 14.5714 14.9689C13.9403 14.9689 13 14.3043 13 13.4845C13 12.6646 13.3688 12 14 12C14.6312 12 16 12.6646 16 13.4845Z" fill="white"/>
</svg>
