<svg width="65" height="19" viewBox="0 0 65 19" fill="none" xmlns="http://www.w3.org/2000/svg">
<path d="M65 3.85171V0.550244L63.9097 1.10049H62.8195L62.2744 0.550244H58.9956L57.9053 0.549691L25.0296 0.550244L23.9393 0H22.3039H19.5783L18.488 0.550244H17.3977H16.3075L15.2172 0H12.5379L10.9639 1.56772H3.13253L2 0H0V4.95165V8H2L3.13253 6.27088H4.30723H7.83135L12.4916 8.80391C12.4659 9.84859 10.1807 12.5418 9.39761 13.3256C8.61448 14.1095 7.83135 14.8933 7.83135 17.2449C8.18894 20.1117 12.146 18.9923 13.7351 17.2449C14.6056 16.0712 15.0789 13.928 15.7623 12.843C16.4458 11.7579 16.4458 10.974 17.9429 11.0049L18.488 9.35415H19.5783C19.5783 9.35415 20.6685 12.6556 23.3942 12.6556C26.1199 12.6556 25.5747 10.4546 25.5747 10.4546V8.80391C25.5809 8.13357 25.6927 7.77685 27.4096 7.8386H50.9036H58.7349V7.05474H55.6024V6.84336H58.9956L59.5181 6.27088V4.70316L58.9956 4.17929H50.1205V3.85171H62.2744L62.8195 3.30147H63.9097L65 3.85171Z" fill="#3D3D3D"/>
<path d="M25 10.4845C25 11.3043 24.5714 12.1768 23.5714 11.9689C22.9403 11.9689 22 11.3043 22 10.4845C22 9.66461 22.3688 9 23 9C23.6312 9 25 9.66461 25 10.4845Z" fill="white"/>
</svg>
