<svg width="72" height="28" viewBox="0 0 72 28" fill="none" xmlns="http://www.w3.org/2000/svg">
<path d="M56.75 11.1131V9.00723L56.0539 9.35822H55.3578L55.0098 9.00723H52.9164L52.2203 9.00688L31.2304 9.00723L30.5343 8.65625H29.4902H27.75L27.0539 9.00723H26.3578H25.6617L24.9656 8.65625H23.255L22.25 9.65625H17.25L16.75 8.65625H15.25V11.8148V13.9207L16.5 13.8047L17.25 12.6562H18H20.25L23.2254 14.272C23.209 14.9384 21.75 16.6562 21.25 17.1562C20.75 17.6562 20.25 18.1562 20.25 19.6562C20.4783 21.4849 23.0048 20.7709 24.0193 19.6562C24.5751 18.9076 24.8773 17.5405 25.3136 16.8484C25.75 16.1562 25.75 15.6562 26.7058 15.6759L27.0539 14.623H27.75C27.75 14.623 28.446 16.7289 30.1863 16.7289C31.9265 16.7289 31.5785 15.3249 31.5785 15.3249V14.272C31.5825 13.8444 31.6538 13.6169 32.75 13.6562H47.75H52.75V13.1562H50.75V13.0214H52.9164L53.25 12.6562V11.6562L52.9164 11.3221H47.25V11.1131H55.0098L55.3578 10.7622H56.0539L56.75 11.1131Z" fill="#3D3D3D"/>
<path d="M31.1182 15.3803C31.1182 15.9268 30.8324 16.5085 30.1658 16.3699C29.745 16.3699 29.1182 15.9268 29.1182 15.3803C29.1182 14.8337 29.364 14.3906 29.7848 14.3906C30.2056 14.3906 31.1182 14.8337 31.1182 15.3803Z" fill="white"/>
</svg>
